<mxfile host="app.diagrams.net" modified="2024-04-17T22:11:08.312Z" agent="Mozilla/5.0 (Windows NT 10.0; Win64; x64) AppleWebKit/537.36 (KHTML, like Gecko) Chrome/121.0.0.0 Safari/537.36 OPR/107.0.0.0" etag="yA-VZ7LtY59UPj-i20Wo" version="24.2.5" type="google">
  <diagram name="Página-1" id="tSyz5-W4P4JhwYr_Mvgb">
    <mxGraphModel grid="1" page="1" gridSize="10" guides="1" tooltips="1" connect="1" arrows="1" fold="1" pageScale="1" pageWidth="827" pageHeight="1169" math="0" shadow="0">
      <root>
        <mxCell id="0" />
        <mxCell id="1" parent="0" />
        <mxCell id="2jOmr5r9kTfCbS9nVnYl-10" value="" style="rounded=0;whiteSpace=wrap;html=1;" vertex="1" parent="1">
          <mxGeometry x="-51" y="40" width="901" height="720" as="geometry" />
        </mxCell>
        <mxCell id="2jOmr5r9kTfCbS9nVnYl-8" value="" style="rounded=0;whiteSpace=wrap;html=1;" vertex="1" parent="1">
          <mxGeometry x="-10" y="80" width="820" height="650" as="geometry" />
        </mxCell>
        <mxCell id="2jOmr5r9kTfCbS9nVnYl-6" value="" style="rounded=0;whiteSpace=wrap;html=1;" vertex="1" parent="1">
          <mxGeometry x="30" y="120" width="750" height="560" as="geometry" />
        </mxCell>
        <mxCell id="uI8p6up6x-aIGAoA__FA-1" value="" style="rounded=0;whiteSpace=wrap;html=1;" vertex="1" parent="1">
          <mxGeometry x="70" y="160" width="670" height="460" as="geometry" />
        </mxCell>
        <mxCell id="uI8p6up6x-aIGAoA__FA-2" value="LAPTOP" style="text;html=1;align=center;verticalAlign=middle;whiteSpace=wrap;rounded=0;fontStyle=1;fontSize=19;" vertex="1" parent="1">
          <mxGeometry x="40" y="10" width="60" height="30" as="geometry" />
        </mxCell>
        <mxCell id="uI8p6up6x-aIGAoA__FA-3" value="" style="rounded=0;whiteSpace=wrap;html=1;fillColor=#dae8fc;strokeColor=#6c8ebf;" vertex="1" parent="1">
          <mxGeometry x="114" y="200" width="580" height="380" as="geometry" />
        </mxCell>
        <mxCell id="uI8p6up6x-aIGAoA__FA-4" value="Linux-Host:22 &lt;span style=&quot;font-weight: normal;&quot;&gt;/ UBUNTU 22.04.4 / 127.0.0.1&lt;/span&gt;" style="text;html=1;align=center;verticalAlign=middle;whiteSpace=wrap;rounded=0;fontStyle=1;fontSize=19;" vertex="1" parent="1">
          <mxGeometry x="69" y="130" width="410" height="30" as="geometry" />
        </mxCell>
        <mxCell id="uI8p6up6x-aIGAoA__FA-5" value="" style="rounded=0;whiteSpace=wrap;html=1;" vertex="1" parent="1">
          <mxGeometry x="140" y="220" width="534" height="340" as="geometry" />
        </mxCell>
        <mxCell id="uI8p6up6x-aIGAoA__FA-7" value="DOCKER" style="text;html=1;align=center;verticalAlign=middle;whiteSpace=wrap;rounded=0;fontSize=14;fontStyle=1" vertex="1" parent="1">
          <mxGeometry x="374" y="195" width="60" height="30" as="geometry" />
        </mxCell>
        <mxCell id="uI8p6up6x-aIGAoA__FA-8" value="" style="rounded=0;whiteSpace=wrap;html=1;fillColor=#ffcccc;strokeColor=#36393d;" vertex="1" parent="1">
          <mxGeometry x="850" y="140" width="40" height="60" as="geometry" />
        </mxCell>
        <mxCell id="uI8p6up6x-aIGAoA__FA-9" value="" style="rounded=0;whiteSpace=wrap;html=1;fillColor=#cdeb8b;strokeColor=#36393d;" vertex="1" parent="1">
          <mxGeometry x="850" y="262.5" width="40" height="60" as="geometry" />
        </mxCell>
        <mxCell id="uI8p6up6x-aIGAoA__FA-10" value="ETHERNET" style="text;html=1;align=center;verticalAlign=middle;whiteSpace=wrap;rounded=0;" vertex="1" parent="1">
          <mxGeometry x="900" y="142.5" width="60" height="30" as="geometry" />
        </mxCell>
        <mxCell id="uI8p6up6x-aIGAoA__FA-11" value="WIFI" style="text;html=1;align=center;verticalAlign=middle;whiteSpace=wrap;rounded=0;" vertex="1" parent="1">
          <mxGeometry x="890" y="250" width="65" height="32.5" as="geometry" />
        </mxCell>
        <mxCell id="uI8p6up6x-aIGAoA__FA-12" value="RAM 8gb /&amp;nbsp;Intel® Celeron® Processor N4020/ SSD 57GB" style="text;html=1;align=center;verticalAlign=middle;whiteSpace=wrap;rounded=0;" vertex="1" parent="1">
          <mxGeometry x="70" y="10" width="400" height="30" as="geometry" />
        </mxCell>
        <mxCell id="kggAxBdgyEaGyCxi0-UE-1" value="SSH:22" style="text;html=1;align=center;verticalAlign=middle;whiteSpace=wrap;rounded=0;fillColor=#f8cecc;strokeColor=#b85450;" vertex="1" parent="1">
          <mxGeometry x="614" y="130" width="60" height="30" as="geometry" />
        </mxCell>
        <mxCell id="kggAxBdgyEaGyCxi0-UE-2" value="186.50.56.98" style="text;html=1;align=center;verticalAlign=middle;whiteSpace=wrap;rounded=0;strokeWidth=3;" vertex="1" parent="1">
          <mxGeometry x="900" y="280" width="60" height="30" as="geometry" />
        </mxCell>
        <mxCell id="oRGreUO6XpzCxwiExDaz-1" value="" style="endArrow=classic;html=1;rounded=0;entryX=0;entryY=0.5;entryDx=0;entryDy=0;exitX=1;exitY=0.5;exitDx=0;exitDy=0;" edge="1" parent="1" source="uI8p6up6x-aIGAoA__FA-4" target="kggAxBdgyEaGyCxi0-UE-1">
          <mxGeometry width="50" height="50" relative="1" as="geometry">
            <mxPoint x="534" y="160" as="sourcePoint" />
            <mxPoint x="584" y="110" as="targetPoint" />
            <Array as="points" />
          </mxGeometry>
        </mxCell>
        <mxCell id="oRGreUO6XpzCxwiExDaz-2" value="" style="whiteSpace=wrap;html=1;aspect=fixed;" vertex="1" parent="1">
          <mxGeometry x="174" y="275" width="210" height="210" as="geometry" />
        </mxCell>
        <mxCell id="2jOmr5r9kTfCbS9nVnYl-27" style="edgeStyle=orthogonalEdgeStyle;rounded=0;orthogonalLoop=1;jettySize=auto;html=1;exitX=0.5;exitY=1;exitDx=0;exitDy=0;entryX=1;entryY=0.5;entryDx=0;entryDy=0;exitPerimeter=0;" edge="1" parent="1" source="oRGreUO6XpzCxwiExDaz-4" target="2jOmr5r9kTfCbS9nVnYl-18">
          <mxGeometry relative="1" as="geometry">
            <Array as="points">
              <mxPoint x="420" y="425" />
              <mxPoint x="420" y="770" />
              <mxPoint x="700" y="770" />
              <mxPoint x="700" y="850" />
            </Array>
          </mxGeometry>
        </mxCell>
        <mxCell id="oRGreUO6XpzCxwiExDaz-3" value="APP(WEB):8000" style="text;html=1;align=center;verticalAlign=middle;whiteSpace=wrap;rounded=0;fontStyle=1;fontSize=19;fillColor=#f0a30a;fontColor=#000000;strokeColor=#BD7000;" vertex="1" parent="1">
          <mxGeometry x="180" y="240" width="150" height="30" as="geometry" />
        </mxCell>
        <mxCell id="oRGreUO6XpzCxwiExDaz-4" value="" style="shape=cylinder3;whiteSpace=wrap;html=1;boundedLbl=1;backgroundOutline=1;size=15;rotation=-90;" vertex="1" parent="1">
          <mxGeometry x="240" y="365" width="70" height="120" as="geometry" />
        </mxCell>
        <mxCell id="oRGreUO6XpzCxwiExDaz-7" value="LOGIN" style="text;html=1;align=center;verticalAlign=middle;whiteSpace=wrap;rounded=0;fontStyle=1;fontSize=19;" vertex="1" parent="1">
          <mxGeometry x="254" y="410" width="60" height="30" as="geometry" />
        </mxCell>
        <mxCell id="oRGreUO6XpzCxwiExDaz-10" value="LARAVEL&lt;br style=&quot;font-size: 15px;&quot;&gt;PHP&lt;br style=&quot;font-size: 15px;&quot;&gt;ARTISAN&lt;div&gt;HTML&lt;br style=&quot;font-size: 15px;&quot;&gt;&lt;div style=&quot;font-size: 15px;&quot;&gt;&lt;br style=&quot;font-size: 15px;&quot;&gt;&lt;/div&gt;&lt;/div&gt;" style="text;html=1;align=center;verticalAlign=middle;whiteSpace=wrap;rounded=0;fontSize=15;" vertex="1" parent="1">
          <mxGeometry x="244" y="310" width="60" height="30" as="geometry" />
        </mxCell>
        <mxCell id="RnygU9wS97FUOdqn8e_b-2" value="C:\Users\Usuario\Documents\workspace\Proyecto" style="text;html=1;align=center;verticalAlign=middle;whiteSpace=wrap;rounded=0;fontSize=13;" vertex="1" parent="1">
          <mxGeometry x="369.5" y="910" width="60" height="30" as="geometry" />
        </mxCell>
        <mxCell id="2jOmr5r9kTfCbS9nVnYl-1" value="" style="whiteSpace=wrap;html=1;aspect=fixed;" vertex="1" parent="1">
          <mxGeometry x="444" y="275" width="210" height="210" as="geometry" />
        </mxCell>
        <mxCell id="2jOmr5r9kTfCbS9nVnYl-2" value="BD:3306" style="text;html=1;align=center;verticalAlign=middle;whiteSpace=wrap;rounded=0;fontStyle=1;fontSize=19;fillColor=#f0a30a;fontColor=#000000;strokeColor=#BD7000;" vertex="1" parent="1">
          <mxGeometry x="468" y="240" width="82" height="30" as="geometry" />
        </mxCell>
        <mxCell id="2jOmr5r9kTfCbS9nVnYl-3" value="" style="shape=cylinder3;whiteSpace=wrap;html=1;boundedLbl=1;backgroundOutline=1;size=15;rotation=0;" vertex="1" parent="1">
          <mxGeometry x="460" y="312.5" width="70" height="92.5" as="geometry" />
        </mxCell>
        <mxCell id="2jOmr5r9kTfCbS9nVnYl-4" value="BD" style="text;html=1;align=center;verticalAlign=middle;whiteSpace=wrap;rounded=0;fontStyle=1;fontSize=19;" vertex="1" parent="1">
          <mxGeometry x="465" y="357.5" width="60" height="30" as="geometry" />
        </mxCell>
        <mxCell id="2jOmr5r9kTfCbS9nVnYl-5" value="&lt;div&gt;&lt;div style=&quot;font-size: 15px;&quot;&gt;MySQL&lt;/div&gt;&lt;/div&gt;" style="text;html=1;align=center;verticalAlign=middle;whiteSpace=wrap;rounded=0;fontSize=15;" vertex="1" parent="1">
          <mxGeometry x="465" y="282.5" width="60" height="30" as="geometry" />
        </mxCell>
        <mxCell id="2jOmr5r9kTfCbS9nVnYl-7" value="WSL v2" style="text;html=1;align=center;verticalAlign=middle;whiteSpace=wrap;rounded=0;fontStyle=1;fontSize=19;" vertex="1" parent="1">
          <mxGeometry x="-130" y="90" width="410" height="30" as="geometry" />
        </mxCell>
        <mxCell id="2jOmr5r9kTfCbS9nVnYl-9" value="Windows" style="text;html=1;align=center;verticalAlign=middle;whiteSpace=wrap;rounded=0;fontStyle=1;fontSize=19;" vertex="1" parent="1">
          <mxGeometry x="-150" y="50" width="410" height="30" as="geometry" />
        </mxCell>
        <mxCell id="2jOmr5r9kTfCbS9nVnYl-13" value="WSL Local Host 127.0.0.1" style="text;html=1;align=center;verticalAlign=middle;whiteSpace=wrap;rounded=0;fillColor=#e1d5e7;strokeColor=#9673a6;" vertex="1" parent="1">
          <mxGeometry x="570" y="10" width="170" height="30" as="geometry" />
        </mxCell>
        <mxCell id="2jOmr5r9kTfCbS9nVnYl-14" value="&lt;b&gt;//wsl.localhost&lt;/b&gt;" style="shape=dataStorage;whiteSpace=wrap;html=1;fixedSize=1;fillColor=#f8cecc;strokeColor=#b85450;" vertex="1" parent="1">
          <mxGeometry x="160" y="810" width="140" height="80" as="geometry" />
        </mxCell>
        <mxCell id="2jOmr5r9kTfCbS9nVnYl-16" value="&lt;b&gt;ubuntu-2204&lt;/b&gt;" style="shape=dataStorage;whiteSpace=wrap;html=1;fixedSize=1;fillColor=#e1d5e7;strokeColor=#9673a6;" vertex="1" parent="1">
          <mxGeometry x="280" y="810" width="130" height="80" as="geometry" />
        </mxCell>
        <mxCell id="2jOmr5r9kTfCbS9nVnYl-17" value="&lt;b&gt;/home/Usuario&lt;/b&gt;" style="shape=dataStorage;whiteSpace=wrap;html=1;fixedSize=1;fillColor=#d5e8d4;strokeColor=#82b366;" vertex="1" parent="1">
          <mxGeometry x="390" y="810" width="140" height="80" as="geometry" />
        </mxCell>
        <mxCell id="2jOmr5r9kTfCbS9nVnYl-18" value="&lt;b&gt;/app&lt;/b&gt;" style="shape=dataStorage;whiteSpace=wrap;html=1;fixedSize=1;fillColor=#f0a30a;fontColor=#000000;strokeColor=#BD7000;" vertex="1" parent="1">
          <mxGeometry x="510" y="810" width="130" height="80" as="geometry" />
        </mxCell>
        <mxCell id="2jOmr5r9kTfCbS9nVnYl-19" value="&lt;b&gt;REPOSITORIO&lt;/b&gt;" style="shape=cylinder3;whiteSpace=wrap;html=1;boundedLbl=1;backgroundOutline=1;size=15;" vertex="1" parent="1">
          <mxGeometry x="-290" y="450" width="150" height="195" as="geometry" />
        </mxCell>
        <mxCell id="2jOmr5r9kTfCbS9nVnYl-20" value="GitHub.com" style="text;html=1;align=center;verticalAlign=middle;whiteSpace=wrap;rounded=0;fontStyle=1;fontSize=19;" vertex="1" parent="1">
          <mxGeometry x="-305" y="412.5" width="180" height="30" as="geometry" />
        </mxCell>
        <mxCell id="2jOmr5r9kTfCbS9nVnYl-21" value="WSLv2" style="text;html=1;align=center;verticalAlign=middle;whiteSpace=wrap;rounded=0;" vertex="1" parent="1">
          <mxGeometry x="194" y="780" width="60" height="30" as="geometry" />
        </mxCell>
        <mxCell id="2jOmr5r9kTfCbS9nVnYl-22" value="Distro" style="text;html=1;align=center;verticalAlign=middle;whiteSpace=wrap;rounded=0;" vertex="1" parent="1">
          <mxGeometry x="324" y="780" width="60" height="30" as="geometry" />
        </mxCell>
        <mxCell id="2jOmr5r9kTfCbS9nVnYl-23" value="Home" style="text;html=1;align=center;verticalAlign=middle;whiteSpace=wrap;rounded=0;" vertex="1" parent="1">
          <mxGeometry x="430" y="780" width="60" height="30" as="geometry" />
        </mxCell>
        <mxCell id="2jOmr5r9kTfCbS9nVnYl-25" style="edgeStyle=orthogonalEdgeStyle;rounded=0;orthogonalLoop=1;jettySize=auto;html=1;exitX=0.5;exitY=1;exitDx=0;exitDy=0;entryX=0.5;entryY=1;entryDx=0;entryDy=0;entryPerimeter=0;" edge="1" parent="1" source="2jOmr5r9kTfCbS9nVnYl-18" target="2jOmr5r9kTfCbS9nVnYl-19">
          <mxGeometry relative="1" as="geometry" />
        </mxCell>
        <mxCell id="2jOmr5r9kTfCbS9nVnYl-26" value="Git clone (url)" style="text;html=1;align=center;verticalAlign=middle;whiteSpace=wrap;rounded=0;fillColor=#fad7ac;strokeColor=#b46504;fontStyle=1" vertex="1" parent="1">
          <mxGeometry x="-141" y="870" width="90" height="30" as="geometry" />
        </mxCell>
        <mxCell id="2jOmr5r9kTfCbS9nVnYl-30" value="" style="verticalLabelPosition=bottom;verticalAlign=top;html=1;shape=mxgraph.basic.polygon;polyCoords=[[0.25,0],[0.75,0],[1,0.25],[1,0.75],[0.75,1],[0.25,1],[0,0.75],[0,0.25]];polyline=0;fillColor=#b0e3e6;strokeColor=#0e8088;" vertex="1" parent="1">
          <mxGeometry x="100" y="184.63" width="50" height="45" as="geometry" />
        </mxCell>
        <mxCell id="2jOmr5r9kTfCbS9nVnYl-31" value="NS" style="text;html=1;align=center;verticalAlign=middle;whiteSpace=wrap;rounded=0;fontStyle=1" vertex="1" parent="1">
          <mxGeometry x="110" y="200" width="30" height="14.25" as="geometry" />
        </mxCell>
      </root>
    </mxGraphModel>
  </diagram>
</mxfile>
